# xmcd
#
# Track frame offsets:
#	150
#	13152
#	32393
#	45844
#	56783
#	66142
#	79355
#	90050
#	105034
#	116265
#	129825
#	146891
#	164439
#	171916
#	203973
#	223459
#
# Disc length: 3259 seconds
#
# Revision: 0
# Processed by: cddbd v1.4PL0 Copyright (c) Steve Scherf et al.
# Submitted via: EasyCDDAExtractor 5.0.5.1
#
DISCID=d20cb910
DTITLE=De Volle Bloas - Vrijdag Halluv Acht
DYEAR=1997
DGENRE=Various
TTITLE0=Also Sprach Zarathustra
TTITLE1=Non Je Ne Regrette Rien
TTITLE2=Un, Deax, Troix
TTITLE3=Je T'aime
TTITLE4=Eye Of The Tiger
TTITLE5=Boogie On The Bandstand
TTITLE6=This Ain't The Blues
TTITLE7=In To Each Live Some Rain Must Fall
TTITLE8=Come Back My Love
TTITLE9=Schotse Ruit
TTITLE10=Apache
TTITLE11=Bolero
TTITLE12=Glory Glory Hallelujuh
TTITLE13=The Blues Brothers
TTITLE14=Soul Medley
TTITLE15=Hot Hot Hot
EXTD=
EXTT0=
EXTT1=
EXTT2=
EXTT3=
EXTT4=
EXTT5=
EXTT6=
EXTT7=
EXTT8=
EXTT9=
EXTT10=
EXTT11=
EXTT12=
EXTT13=
EXTT14=
EXTT15=
PLAYORDER=
